<?xml version="1.0" encoding="UTF-8"?>
<!-- XIV Dye Tools - Theme Switcher Icon (Paint Palette) -->
<svg viewBox="0 0 24 24" fill="none" stroke="currentColor" stroke-width="1.5" stroke-linecap="round" stroke-linejoin="round" xmlns="http://www.w3.org/2000/svg">
  <title>Theme Switcher</title>
  <path d="M 12 2 C 6.5 2 2 6.5 2 12 C 2 14.5 3 16.5 4.5 18 C 5 18.5 6 18.5 6.5 18 C 7 17.5 7 16.5 6.5 15.5 C 6 14.5 6 13 6 12 C 6 8.7 8.7 6 12 6 C 15.3 6 18 8.7 18 12 C 18 15.3 15.3 18 12 18 L 10 18 C 9 18 8 19 8 20 C 8 21 9 22 10 22 L 12 22 C 17.5 22 22 17.5 22 12 C 22 6.5 17.5 2 12 2 Z" />
  <circle cx="8.5" cy="10.5" r="1.5" fill="currentColor" stroke="none" opacity="0.6" />
  <circle cx="12" cy="8" r="1.5" fill="currentColor" stroke="none" opacity="0.8" />
  <circle cx="15.5" cy="10.5" r="1.5" fill="currentColor" stroke="none" opacity="0.4" />
</svg>
