<svg xmlns="http://www.w3.org/2000/svg" viewBox="0 0 24 24" width="24" height="24" stroke-width="1.5" stroke="currentColor" fill="none">
  <title>Community / Art</title>
  <!-- Artist Palette - represents Community creations -->
  <path d="M12 2C6.48 2 2 6.48 2 12c0 5.52 4.48 10 10 10 1.1 0 2-.9 2-2 0-.51-.2-.98-.52-1.34-.31-.35-.48-.82-.48-1.33 0-1.1.9-2 2-2h2.36c3.1 0 5.64-2.54 5.64-5.64C23 6.17 18.18 2 12 2z" stroke-linejoin="round"/>
  <circle cx="7.5" cy="10.5" r="1.5" fill="currentColor"/>
  <circle cx="10.5" cy="6.5" r="1.5" fill="currentColor"/>
  <circle cx="15.5" cy="6.5" r="1.5" fill="currentColor"/>
  <circle cx="18" cy="10" r="1.5" fill="currentColor"/>
</svg>
