<?xml version="1.0" encoding="UTF-8"?>
<!-- XIV Dye Tools - Share Icon (Chain Link) -->
<svg viewBox="0 0 24 24" fill="none" stroke="currentColor" stroke-width="1.5" stroke-linecap="round" stroke-linejoin="round" xmlns="http://www.w3.org/2000/svg">
  <title>Share</title>
  <path d="M 10 13 C 10.7 13.7 11.5 14 12.5 14 C 13.5 14 14.3 13.7 15 13 L 18 10 C 18.7 9.3 19 8.5 19 7.5 C 19 6.5 18.7 5.7 18 5 C 17.3 4.3 16.5 4 15.5 4 C 14.5 4 13.7 4.3 13 5 L 11.5 6.5" />
  <path d="M 14 11 C 13.3 10.3 12.5 10 11.5 10 C 10.5 10 9.7 10.3 9 11 L 6 14 C 5.3 14.7 5 15.5 5 16.5 C 5 17.5 5.3 18.3 6 19 C 6.7 19.7 7.5 20 8.5 20 C 9.5 20 10.3 19.7 11 19 L 12.5 17.5" />
</svg>
